<mxfile host="Electron" agent="Mozilla/5.0 (Windows NT 10.0; Win64; x64) AppleWebKit/537.36 (KHTML, like Gecko) draw.io/26.0.4 Chrome/128.0.6613.186 Electron/32.2.5 Safari/537.36" version="26.0.4">
  <diagram id="R2lEEEUBdFMjLlhIrx00" name="Page-1">
    <mxGraphModel dx="4221" dy="2680" grid="1" gridSize="10" guides="1" tooltips="1" connect="1" arrows="1" fold="1" page="1" pageScale="1" pageWidth="850" pageHeight="1100" math="0" shadow="0" extFonts="Permanent Marker^https://fonts.googleapis.com/css?family=Permanent+Marker">
      <root>
        <mxCell id="0" />
        <mxCell id="1" parent="0" />
        <mxCell id="izHWS0gibCpd-Ilg2Qa7-1" value="&lt;font style=&quot;font-size: 14px;&quot;&gt;Root element&lt;br&gt;&lt;b style=&quot;&quot;&gt;&amp;lt;botiga_nike&amp;gt;&lt;/b&gt;&lt;/font&gt;" style="rounded=0;whiteSpace=wrap;html=1;" parent="1" vertex="1">
          <mxGeometry x="365" y="510" width="120" height="60" as="geometry" />
        </mxCell>
        <mxCell id="izHWS0gibCpd-Ilg2Qa7-3" value="" style="endArrow=none;html=1;rounded=0;entryX=0.5;entryY=1;entryDx=0;entryDy=0;" parent="1" target="izHWS0gibCpd-Ilg2Qa7-1" edge="1">
          <mxGeometry width="50" height="50" relative="1" as="geometry">
            <mxPoint x="425" y="610" as="sourcePoint" />
            <mxPoint x="430" y="640" as="targetPoint" />
            <Array as="points">
              <mxPoint x="425" y="860" />
              <mxPoint x="425" y="690" />
            </Array>
          </mxGeometry>
        </mxCell>
        <mxCell id="izHWS0gibCpd-Ilg2Qa7-4" value="Element&lt;br&gt;&lt;b&gt;&amp;lt;producte&amp;gt;&lt;/b&gt;" style="rounded=0;whiteSpace=wrap;html=1;" parent="1" vertex="1">
          <mxGeometry x="375" y="860" width="100" height="40" as="geometry" />
        </mxCell>
        <mxCell id="izHWS0gibCpd-Ilg2Qa7-7" value="" style="endArrow=none;html=1;rounded=0;entryX=1;entryY=0.5;entryDx=0;entryDy=0;exitX=-0.006;exitY=0.667;exitDx=0;exitDy=0;exitPerimeter=0;" parent="1" source="izHWS0gibCpd-Ilg2Qa7-8" target="izHWS0gibCpd-Ilg2Qa7-4" edge="1">
          <mxGeometry width="50" height="50" relative="1" as="geometry">
            <mxPoint x="540" y="700" as="sourcePoint" />
            <mxPoint x="450" y="720" as="targetPoint" />
          </mxGeometry>
        </mxCell>
        <mxCell id="izHWS0gibCpd-Ilg2Qa7-8" value="Attribute&lt;br&gt;&lt;b&gt;codi&lt;/b&gt;&lt;br&gt;&lt;font style=&quot;font-size: 10px;&quot;&gt;&quot;CW2288-111&quot;&lt;/font&gt;" style="ellipse;whiteSpace=wrap;html=1;" parent="1" vertex="1">
          <mxGeometry x="580" y="840" width="90" height="60" as="geometry" />
        </mxCell>
        <mxCell id="izHWS0gibCpd-Ilg2Qa7-12" value="" style="endArrow=none;html=1;rounded=0;entryX=0.5;entryY=1;entryDx=0;entryDy=0;" parent="1" target="izHWS0gibCpd-Ilg2Qa7-4" edge="1">
          <mxGeometry width="50" height="50" relative="1" as="geometry">
            <mxPoint x="425" y="920" as="sourcePoint" />
            <mxPoint x="450" y="1030" as="targetPoint" />
          </mxGeometry>
        </mxCell>
        <mxCell id="izHWS0gibCpd-Ilg2Qa7-13" value="" style="endArrow=none;html=1;rounded=0;" parent="1" edge="1">
          <mxGeometry width="50" height="50" relative="1" as="geometry">
            <mxPoint x="40" y="920" as="sourcePoint" />
            <mxPoint x="810" y="920" as="targetPoint" />
          </mxGeometry>
        </mxCell>
        <mxCell id="izHWS0gibCpd-Ilg2Qa7-14" value="" style="endArrow=none;html=1;rounded=0;" parent="1" edge="1">
          <mxGeometry width="50" height="50" relative="1" as="geometry">
            <mxPoint x="810" y="940" as="sourcePoint" />
            <mxPoint x="810" y="920" as="targetPoint" />
          </mxGeometry>
        </mxCell>
        <mxCell id="izHWS0gibCpd-Ilg2Qa7-15" value="Element&lt;br&gt;&lt;b&gt;&amp;lt;img/&amp;gt;&lt;/b&gt;" style="rounded=0;whiteSpace=wrap;html=1;" parent="1" vertex="1">
          <mxGeometry x="750" y="940" width="120" height="50" as="geometry" />
        </mxCell>
        <mxCell id="izHWS0gibCpd-Ilg2Qa7-16" value="" style="endArrow=none;html=1;rounded=0;entryX=0.5;entryY=1;entryDx=0;entryDy=0;" parent="1" target="izHWS0gibCpd-Ilg2Qa7-15" edge="1">
          <mxGeometry width="50" height="50" relative="1" as="geometry">
            <mxPoint x="810" y="1010" as="sourcePoint" />
            <mxPoint x="820" y="1000" as="targetPoint" />
          </mxGeometry>
        </mxCell>
        <mxCell id="izHWS0gibCpd-Ilg2Qa7-17" value="" style="endArrow=none;html=1;rounded=0;" parent="1" edge="1">
          <mxGeometry width="50" height="50" relative="1" as="geometry">
            <mxPoint x="710" y="1010" as="sourcePoint" />
            <mxPoint x="910" y="1010" as="targetPoint" />
          </mxGeometry>
        </mxCell>
        <mxCell id="izHWS0gibCpd-Ilg2Qa7-18" value="" style="endArrow=none;html=1;rounded=0;" parent="1" edge="1">
          <mxGeometry width="50" height="50" relative="1" as="geometry">
            <mxPoint x="710" y="1030" as="sourcePoint" />
            <mxPoint x="710" y="1010" as="targetPoint" />
          </mxGeometry>
        </mxCell>
        <mxCell id="izHWS0gibCpd-Ilg2Qa7-19" value="" style="endArrow=none;html=1;rounded=0;" parent="1" edge="1">
          <mxGeometry width="50" height="50" relative="1" as="geometry">
            <mxPoint x="911" y="1010" as="sourcePoint" />
            <mxPoint x="911" y="1030" as="targetPoint" />
          </mxGeometry>
        </mxCell>
        <mxCell id="izHWS0gibCpd-Ilg2Qa7-25" value="" style="endArrow=none;html=1;rounded=0;" parent="1" edge="1">
          <mxGeometry width="50" height="50" relative="1" as="geometry">
            <mxPoint x="630" y="940" as="sourcePoint" />
            <mxPoint x="630" y="920" as="targetPoint" />
          </mxGeometry>
        </mxCell>
        <mxCell id="izHWS0gibCpd-Ilg2Qa7-26" value="Element&lt;br&gt;&lt;b&gt;&amp;lt;disponibilitat&amp;gt;&lt;/b&gt;&lt;br&gt;En estoc" style="rounded=0;whiteSpace=wrap;html=1;" parent="1" vertex="1">
          <mxGeometry x="570" y="940" width="120" height="50" as="geometry" />
        </mxCell>
        <mxCell id="izHWS0gibCpd-Ilg2Qa7-27" value="Element&lt;br&gt;&lt;b&gt;&amp;lt;preu&amp;gt;&lt;/b&gt;&lt;br&gt;119,99" style="rounded=0;whiteSpace=wrap;html=1;" parent="1" vertex="1">
          <mxGeometry x="390" y="940" width="120" height="50" as="geometry" />
        </mxCell>
        <mxCell id="izHWS0gibCpd-Ilg2Qa7-28" value="" style="endArrow=none;html=1;rounded=0;exitX=0.5;exitY=0;exitDx=0;exitDy=0;" parent="1" source="izHWS0gibCpd-Ilg2Qa7-27" edge="1">
          <mxGeometry width="50" height="50" relative="1" as="geometry">
            <mxPoint x="690" y="1000" as="sourcePoint" />
            <mxPoint x="450" y="920" as="targetPoint" />
          </mxGeometry>
        </mxCell>
        <mxCell id="izHWS0gibCpd-Ilg2Qa7-29" value="" style="endArrow=none;html=1;rounded=0;entryX=0.5;entryY=1;entryDx=0;entryDy=0;" parent="1" target="izHWS0gibCpd-Ilg2Qa7-27" edge="1">
          <mxGeometry width="50" height="50" relative="1" as="geometry">
            <mxPoint x="450" y="1010" as="sourcePoint" />
            <mxPoint x="740" y="950" as="targetPoint" />
          </mxGeometry>
        </mxCell>
        <mxCell id="izHWS0gibCpd-Ilg2Qa7-31" value="Element&lt;br&gt;&lt;b&gt;&amp;lt;nom&amp;gt;&lt;/b&gt;&lt;br&gt;Nike Air Force 1&#39;07" style="rounded=0;whiteSpace=wrap;html=1;" parent="1" vertex="1">
          <mxGeometry x="240" y="940" width="120" height="50" as="geometry" />
        </mxCell>
        <mxCell id="izHWS0gibCpd-Ilg2Qa7-32" value="" style="endArrow=none;html=1;rounded=0;" parent="1" source="izHWS0gibCpd-Ilg2Qa7-31" edge="1">
          <mxGeometry width="50" height="50" relative="1" as="geometry">
            <mxPoint x="170" y="970" as="sourcePoint" />
            <mxPoint x="300" y="920" as="targetPoint" />
          </mxGeometry>
        </mxCell>
        <mxCell id="izHWS0gibCpd-Ilg2Qa7-33" value="Element&lt;br&gt;&lt;b&gt;&amp;lt;categoria&amp;gt;&lt;/b&gt;&lt;br&gt;Bambas" style="rounded=0;whiteSpace=wrap;html=1;" parent="1" vertex="1">
          <mxGeometry x="100" y="940" width="110" height="50" as="geometry" />
        </mxCell>
        <mxCell id="izHWS0gibCpd-Ilg2Qa7-34" value="" style="endArrow=none;html=1;rounded=0;exitX=0.5;exitY=0;exitDx=0;exitDy=0;" parent="1" source="izHWS0gibCpd-Ilg2Qa7-33" edge="1">
          <mxGeometry width="50" height="50" relative="1" as="geometry">
            <mxPoint x="120" y="960" as="sourcePoint" />
            <mxPoint x="155" y="920" as="targetPoint" />
          </mxGeometry>
        </mxCell>
        <mxCell id="izHWS0gibCpd-Ilg2Qa7-36" value="" style="endArrow=none;html=1;rounded=0;" parent="1" edge="1">
          <mxGeometry width="50" height="50" relative="1" as="geometry">
            <mxPoint x="40" y="940" as="sourcePoint" />
            <mxPoint x="40" y="920" as="targetPoint" />
          </mxGeometry>
        </mxCell>
        <mxCell id="izHWS0gibCpd-Ilg2Qa7-37" value="Element&lt;br&gt;&lt;b&gt;&amp;lt;descripcio&amp;gt;&lt;/b&gt;&lt;br&gt;&lt;div&gt;El fulgor segueix viu a les Nike Air Force 1&#39;07, un model original&lt;/div&gt;&lt;div&gt;de bàsquet que introdueix un nou gir als seus ja característics&lt;/div&gt;&lt;div&gt;revestiments amb costures duradores, els seus acabats impecables&lt;/div&gt;&lt;div&gt;i la quantitat perfecta de reflectant.&lt;/div&gt;" style="rounded=0;whiteSpace=wrap;html=1;" parent="1" vertex="1">
          <mxGeometry x="-90" y="935" width="170" height="195" as="geometry" />
        </mxCell>
        <mxCell id="izHWS0gibCpd-Ilg2Qa7-39" value="" style="endArrow=none;html=1;rounded=0;" parent="1" edge="1">
          <mxGeometry width="50" height="50" relative="1" as="geometry">
            <mxPoint y="1150" as="sourcePoint" />
            <mxPoint y="1130" as="targetPoint" />
          </mxGeometry>
        </mxCell>
        <mxCell id="ZxqVCBdk0h3d-LkIfufm-1" value="" style="endArrow=none;html=1;rounded=0;exitX=0;exitY=0.5;exitDx=0;exitDy=0;" edge="1" parent="1" source="izHWS0gibCpd-Ilg2Qa7-1" target="ZxqVCBdk0h3d-LkIfufm-4">
          <mxGeometry width="50" height="50" relative="1" as="geometry">
            <mxPoint y="540" as="sourcePoint" />
            <mxPoint x="360" y="540" as="targetPoint" />
            <Array as="points" />
          </mxGeometry>
        </mxCell>
        <mxCell id="ZxqVCBdk0h3d-LkIfufm-4" value="Element&lt;br&gt;&lt;b&gt;&amp;lt;producte&amp;gt;&lt;/b&gt;" style="rounded=0;whiteSpace=wrap;html=1;" vertex="1" parent="1">
          <mxGeometry x="-160" y="520" width="120" height="40" as="geometry" />
        </mxCell>
        <mxCell id="ZxqVCBdk0h3d-LkIfufm-5" value="" style="endArrow=none;html=1;rounded=0;entryX=1;entryY=0.5;entryDx=0;entryDy=0;" edge="1" parent="1" target="izHWS0gibCpd-Ilg2Qa7-1">
          <mxGeometry width="50" height="50" relative="1" as="geometry">
            <mxPoint x="880" y="540" as="sourcePoint" />
            <mxPoint x="750" y="360" as="targetPoint" />
            <Array as="points" />
          </mxGeometry>
        </mxCell>
        <mxCell id="ZxqVCBdk0h3d-LkIfufm-6" value="Element&lt;br&gt;&lt;b&gt;&amp;lt;produce&amp;gt;&lt;/b&gt;" style="rounded=0;whiteSpace=wrap;html=1;" vertex="1" parent="1">
          <mxGeometry x="880" y="520" width="120" height="40" as="geometry" />
        </mxCell>
        <mxCell id="ZxqVCBdk0h3d-LkIfufm-7" value="" style="endArrow=none;html=1;rounded=0;exitX=0.458;exitY=0.019;exitDx=0;exitDy=0;exitPerimeter=0;" edge="1" parent="1" source="izHWS0gibCpd-Ilg2Qa7-1">
          <mxGeometry width="50" height="50" relative="1" as="geometry">
            <mxPoint x="420" y="500" as="sourcePoint" />
            <mxPoint x="420" y="220" as="targetPoint" />
          </mxGeometry>
        </mxCell>
        <mxCell id="ZxqVCBdk0h3d-LkIfufm-8" value="Attribute&lt;br&gt;&lt;b&gt;src&lt;/b&gt;&lt;br&gt;&quot;https://static.nike.com/a/images/&lt;br&gt;t_PDP_1728_v1/f_auto,q_auto:eco/&lt;br&gt;b7d9211c26e7431aac24b0540fb3c&lt;br&gt;00f/AIR+FORCE+1+%2707.png&quot;" style="ellipse;whiteSpace=wrap;html=1;" vertex="1" parent="1">
          <mxGeometry x="580" y="1030" width="250" height="120" as="geometry" />
        </mxCell>
        <mxCell id="ZxqVCBdk0h3d-LkIfufm-9" value="Attribute&lt;br&gt;&lt;b&gt;alt&lt;/b&gt;&lt;br&gt;&quot;Nike Air Force 1&#39;07&quot;" style="ellipse;whiteSpace=wrap;html=1;" vertex="1" parent="1">
          <mxGeometry x="850" y="1030" width="130" height="80" as="geometry" />
        </mxCell>
        <mxCell id="ZxqVCBdk0h3d-LkIfufm-10" value="Attribute&lt;br&gt;&lt;b&gt;moneda&lt;/b&gt;&lt;br&gt;&quot;€&quot;" style="ellipse;whiteSpace=wrap;html=1;" vertex="1" parent="1">
          <mxGeometry x="395" y="1010" width="110" height="60" as="geometry" />
        </mxCell>
        <mxCell id="ZxqVCBdk0h3d-LkIfufm-11" style="edgeStyle=orthogonalEdgeStyle;rounded=0;orthogonalLoop=1;jettySize=auto;html=1;exitX=0.5;exitY=1;exitDx=0;exitDy=0;" edge="1" parent="1" source="ZxqVCBdk0h3d-LkIfufm-10" target="ZxqVCBdk0h3d-LkIfufm-10">
          <mxGeometry relative="1" as="geometry" />
        </mxCell>
        <mxCell id="ZxqVCBdk0h3d-LkIfufm-12" value="Attribute&lt;br&gt;&lt;b&gt;lang&lt;/b&gt;&lt;br&gt;&#39;cat&#39;" style="ellipse;whiteSpace=wrap;html=1;" vertex="1" parent="1">
          <mxGeometry x="-50" y="1150" width="110" height="50" as="geometry" />
        </mxCell>
        <mxCell id="ZxqVCBdk0h3d-LkIfufm-13" value="Element&lt;br&gt;&lt;b&gt;&amp;lt;producte&amp;gt;&lt;/b&gt;" style="rounded=0;whiteSpace=wrap;html=1;" vertex="1" parent="1">
          <mxGeometry x="360" y="180" width="120" height="40" as="geometry" />
        </mxCell>
        <mxCell id="ZxqVCBdk0h3d-LkIfufm-14" value="" style="endArrow=none;html=1;rounded=0;entryX=0;entryY=0.5;entryDx=0;entryDy=0;" edge="1" parent="1" target="ZxqVCBdk0h3d-LkIfufm-13">
          <mxGeometry width="50" height="50" relative="1" as="geometry">
            <mxPoint x="240" y="200" as="sourcePoint" />
            <mxPoint x="350" y="190" as="targetPoint" />
          </mxGeometry>
        </mxCell>
        <mxCell id="ZxqVCBdk0h3d-LkIfufm-15" value="Attribute&lt;br&gt;&lt;b&gt;codi&lt;/b&gt;&lt;br&gt;&lt;span style=&quot;background-color: transparent; color: light-dark(rgb(0, 0, 0), rgb(255, 255, 255));&quot;&gt;&quot;FB4748-657&quot;&lt;/span&gt;&lt;br&gt;&lt;font face=&quot;Consolas, Courier New, monospace&quot; color=&quot;#ce9178&quot;&gt;&lt;br&gt;&lt;/font&gt;" style="ellipse;whiteSpace=wrap;html=1;" vertex="1" parent="1">
          <mxGeometry x="140" y="170" width="100" height="60" as="geometry" />
        </mxCell>
        <mxCell id="ZxqVCBdk0h3d-LkIfufm-16" value="" style="endArrow=none;html=1;rounded=0;entryX=0.5;entryY=1;entryDx=0;entryDy=0;" edge="1" parent="1" target="ZxqVCBdk0h3d-LkIfufm-4">
          <mxGeometry width="50" height="50" relative="1" as="geometry">
            <mxPoint x="-100" y="630" as="sourcePoint" />
            <mxPoint x="-110" y="610" as="targetPoint" />
          </mxGeometry>
        </mxCell>
        <mxCell id="ZxqVCBdk0h3d-LkIfufm-17" value="Attribute&lt;br&gt;&lt;b&gt;codi&lt;/b&gt;&lt;br&gt;&quot;&lt;span style=&quot;background-color: transparent; color: light-dark(rgb(0, 0, 0), rgb(255, 255, 255));&quot;&gt;FN8797-456&quot;&lt;/span&gt;" style="ellipse;whiteSpace=wrap;html=1;" vertex="1" parent="1">
          <mxGeometry x="-160" y="630" width="120" height="60" as="geometry" />
        </mxCell>
        <mxCell id="ZxqVCBdk0h3d-LkIfufm-18" value="" style="endArrow=none;html=1;rounded=0;" edge="1" parent="1">
          <mxGeometry width="50" height="50" relative="1" as="geometry">
            <mxPoint x="940" y="520" as="sourcePoint" />
            <mxPoint x="940" y="440" as="targetPoint" />
          </mxGeometry>
        </mxCell>
        <mxCell id="ZxqVCBdk0h3d-LkIfufm-19" value="Attribute&lt;br&gt;&lt;b&gt;codi&lt;/b&gt;&lt;br&gt;&quot;&lt;span style=&quot;background-color: transparent; color: light-dark(rgb(0, 0, 0), rgb(255, 255, 255));&quot;&gt;FV7271-480&lt;/span&gt;&lt;span style=&quot;background-color: transparent; color: light-dark(rgb(0, 0, 0), rgb(255, 255, 255));&quot;&gt;&quot;&lt;/span&gt;&lt;span style=&quot;background-color: transparent; color: light-dark(rgb(0, 0, 0), rgb(255, 255, 255));&quot;&gt;&lt;br&gt;&lt;/span&gt;" style="ellipse;whiteSpace=wrap;html=1;" vertex="1" parent="1">
          <mxGeometry x="880" y="390" width="120" height="50" as="geometry" />
        </mxCell>
        <mxCell id="ZxqVCBdk0h3d-LkIfufm-20" value="" style="endArrow=none;html=1;rounded=0;entryX=0;entryY=0.5;entryDx=0;entryDy=0;" edge="1" parent="1" target="ZxqVCBdk0h3d-LkIfufm-4">
          <mxGeometry width="50" height="50" relative="1" as="geometry">
            <mxPoint x="-200" y="540" as="sourcePoint" />
            <mxPoint x="80" y="730" as="targetPoint" />
            <Array as="points" />
          </mxGeometry>
        </mxCell>
        <mxCell id="ZxqVCBdk0h3d-LkIfufm-21" value="" style="endArrow=none;html=1;rounded=0;" edge="1" parent="1">
          <mxGeometry width="50" height="50" relative="1" as="geometry">
            <mxPoint x="-200" y="920" as="sourcePoint" />
            <mxPoint x="-200" y="200" as="targetPoint" />
          </mxGeometry>
        </mxCell>
        <mxCell id="ZxqVCBdk0h3d-LkIfufm-22" value="" style="endArrow=none;html=1;rounded=0;" edge="1" parent="1">
          <mxGeometry width="50" height="50" relative="1" as="geometry">
            <mxPoint x="-230" y="200" as="sourcePoint" />
            <mxPoint x="-200" y="200" as="targetPoint" />
          </mxGeometry>
        </mxCell>
        <mxCell id="ZxqVCBdk0h3d-LkIfufm-23" value="Element&lt;br&gt;&lt;b&gt;&amp;lt;descripcio&amp;gt;&lt;br&gt;&lt;/b&gt;&lt;span style=&quot;background-color: transparent; color: light-dark(rgb(0, 0, 0), rgb(255, 255, 255));&quot;&gt;La col·lecció Stadium combina detalls de disseny tipus&lt;/span&gt;&lt;div&gt;&lt;p class=&quot;MsoNormal&quot;&gt;rèplica amb una&amp;nbsp;&lt;span style=&quot;background-color: transparent; color: light-dark(rgb(0, 0, 0), rgb(255, 255, 255));&quot;&gt;tecnologia que capil·ltza la suor per oferir un look pensat&amp;nbsp;&lt;/span&gt;&lt;span style=&quot;background-color: transparent; color: light-dark(rgb(0, 0, 0), rgb(255, 255, 255));&quot;&gt;per jugar i&lt;/span&gt;&lt;span style=&quot;background-color: transparent; color: light-dark(rgb(0, 0, 0), rgb(255, 255, 255));&quot;&gt;inspirat en el teu equip preferit. Aquesta samarreta porta&lt;/span&gt;&lt;span style=&quot;background-color: transparent; color: light-dark(rgb(0, 0, 0), rgb(255, 255, 255));&quot;&gt;el mateix&lt;/span&gt;&lt;span style=&quot;background-color: transparent; color: light-dark(rgb(0, 0, 0), rgb(255, 255, 255));&quot;&gt;logotip de Spotify que les anteriors equipacions del FCB.&lt;/span&gt;&lt;/p&gt;&lt;/div&gt;" style="whiteSpace=wrap;html=1;aspect=fixed;" vertex="1" parent="1">
          <mxGeometry x="-450" y="80" width="225" height="225" as="geometry" />
        </mxCell>
        <mxCell id="ZxqVCBdk0h3d-LkIfufm-24" value="" style="endArrow=none;html=1;rounded=0;" edge="1" parent="1">
          <mxGeometry width="50" height="50" relative="1" as="geometry">
            <mxPoint x="-490" y="200" as="sourcePoint" />
            <mxPoint x="-450" y="200" as="targetPoint" />
          </mxGeometry>
        </mxCell>
        <mxCell id="ZxqVCBdk0h3d-LkIfufm-25" value="Attribute&lt;br&gt;&lt;b&gt;lang&lt;/b&gt;&lt;br&gt;&#39;cat&#39;" style="ellipse;whiteSpace=wrap;html=1;" vertex="1" parent="1">
          <mxGeometry x="-590" y="170" width="120" height="60" as="geometry" />
        </mxCell>
        <mxCell id="ZxqVCBdk0h3d-LkIfufm-26" style="edgeStyle=orthogonalEdgeStyle;rounded=0;orthogonalLoop=1;jettySize=auto;html=1;exitX=0.5;exitY=1;exitDx=0;exitDy=0;" edge="1" parent="1" source="ZxqVCBdk0h3d-LkIfufm-25" target="ZxqVCBdk0h3d-LkIfufm-25">
          <mxGeometry relative="1" as="geometry" />
        </mxCell>
        <mxCell id="ZxqVCBdk0h3d-LkIfufm-27" value="Attrinute&lt;br&gt;&lt;b&gt;lang&lt;br&gt;&lt;/b&gt;&#39;cat&#39;" style="ellipse;whiteSpace=wrap;html=1;" vertex="1" parent="1">
          <mxGeometry x="1290" y="180" width="120" height="50" as="geometry" />
        </mxCell>
        <mxCell id="ZxqVCBdk0h3d-LkIfufm-28" value="Attribute&lt;br&gt;&lt;b&gt;lang&lt;/b&gt;&lt;br&gt;&#39;cat&#39;" style="ellipse;whiteSpace=wrap;html=1;" vertex="1" parent="1">
          <mxGeometry x="-18.75" y="-130" width="120" height="50" as="geometry" />
        </mxCell>
        <mxCell id="ZxqVCBdk0h3d-LkIfufm-29" value="Element&lt;br&gt;&lt;b&gt;&amp;lt;categoria&amp;gt;&lt;/b&gt;&lt;br&gt;Samarretes" style="rounded=0;whiteSpace=wrap;html=1;" vertex="1" parent="1">
          <mxGeometry x="-390" y="340" width="120" height="60" as="geometry" />
        </mxCell>
        <mxCell id="ZxqVCBdk0h3d-LkIfufm-30" value="" style="endArrow=none;html=1;rounded=0;entryX=1;entryY=0.5;entryDx=0;entryDy=0;" edge="1" parent="1" target="ZxqVCBdk0h3d-LkIfufm-29">
          <mxGeometry width="50" height="50" relative="1" as="geometry">
            <mxPoint x="-200" y="370" as="sourcePoint" />
            <mxPoint x="-50" y="340" as="targetPoint" />
          </mxGeometry>
        </mxCell>
        <mxCell id="ZxqVCBdk0h3d-LkIfufm-31" value="Element&lt;br&gt;&lt;b&gt;&amp;lt;nom&amp;gt;&lt;/b&gt;&lt;br&gt;&lt;span style=&quot;background-color: transparent; color: light-dark(rgb(0, 0, 0), rgb(255, 255, 255));&quot;&gt;Primer equipament Stadium FC Barcelona 2024/25&lt;/span&gt;" style="rounded=0;whiteSpace=wrap;html=1;" vertex="1" parent="1">
          <mxGeometry x="-425" y="410" width="170" height="100" as="geometry" />
        </mxCell>
        <mxCell id="ZxqVCBdk0h3d-LkIfufm-32" value="" style="endArrow=none;html=1;rounded=0;entryX=1;entryY=0.5;entryDx=0;entryDy=0;" edge="1" parent="1" target="ZxqVCBdk0h3d-LkIfufm-31">
          <mxGeometry width="50" height="50" relative="1" as="geometry">
            <mxPoint x="-200" y="460" as="sourcePoint" />
            <mxPoint x="-50" y="550" as="targetPoint" />
          </mxGeometry>
        </mxCell>
        <mxCell id="ZxqVCBdk0h3d-LkIfufm-33" value="Element&lt;br&gt;&lt;b&gt;&amp;lt;preu&amp;gt;&lt;br&gt;&lt;/b&gt;99,99" style="rounded=0;whiteSpace=wrap;html=1;" vertex="1" parent="1">
          <mxGeometry x="-360" y="540" width="120" height="60" as="geometry" />
        </mxCell>
        <mxCell id="ZxqVCBdk0h3d-LkIfufm-34" value="Attribute&lt;br&gt;&lt;b&gt;moneda&lt;/b&gt;&lt;br&gt;€" style="ellipse;whiteSpace=wrap;html=1;" vertex="1" parent="1">
          <mxGeometry x="-510" y="542.5" width="120" height="55" as="geometry" />
        </mxCell>
        <mxCell id="ZxqVCBdk0h3d-LkIfufm-35" value="" style="endArrow=none;html=1;rounded=0;" edge="1" parent="1" source="ZxqVCBdk0h3d-LkIfufm-33">
          <mxGeometry width="50" height="50" relative="1" as="geometry">
            <mxPoint x="-270" y="620" as="sourcePoint" />
            <mxPoint x="-199.28932188134524" y="570" as="targetPoint" />
          </mxGeometry>
        </mxCell>
        <mxCell id="ZxqVCBdk0h3d-LkIfufm-36" value="" style="endArrow=none;html=1;rounded=0;exitX=1;exitY=0.5;exitDx=0;exitDy=0;" edge="1" parent="1" source="ZxqVCBdk0h3d-LkIfufm-34">
          <mxGeometry width="50" height="50" relative="1" as="geometry">
            <mxPoint x="-380" y="570" as="sourcePoint" />
            <mxPoint x="-360" y="570" as="targetPoint" />
          </mxGeometry>
        </mxCell>
        <mxCell id="ZxqVCBdk0h3d-LkIfufm-37" value="Element&lt;br&gt;&lt;b&gt;&amp;lt;disponibilitat&amp;gt;&lt;/b&gt;&lt;br&gt;Esgotat" style="rounded=0;whiteSpace=wrap;html=1;" vertex="1" parent="1">
          <mxGeometry x="-390" y="650" width="120" height="50" as="geometry" />
        </mxCell>
        <mxCell id="ZxqVCBdk0h3d-LkIfufm-39" value="" style="endArrow=none;html=1;rounded=0;exitX=1;exitY=0.5;exitDx=0;exitDy=0;" edge="1" parent="1" source="ZxqVCBdk0h3d-LkIfufm-37">
          <mxGeometry width="50" height="50" relative="1" as="geometry">
            <mxPoint x="-250" y="720" as="sourcePoint" />
            <mxPoint x="-200" y="675" as="targetPoint" />
          </mxGeometry>
        </mxCell>
        <mxCell id="ZxqVCBdk0h3d-LkIfufm-41" value="" style="endArrow=none;html=1;rounded=0;" edge="1" parent="1">
          <mxGeometry width="50" height="50" relative="1" as="geometry">
            <mxPoint x="-240" y="920" as="sourcePoint" />
            <mxPoint x="-200" y="920" as="targetPoint" />
          </mxGeometry>
        </mxCell>
        <mxCell id="ZxqVCBdk0h3d-LkIfufm-42" value="Element&lt;br&gt;&lt;b&gt;&amp;lt;img/&amp;gt;&lt;/b&gt;" style="rounded=0;whiteSpace=wrap;html=1;" vertex="1" parent="1">
          <mxGeometry x="-340" y="890" width="100" height="50" as="geometry" />
        </mxCell>
        <mxCell id="ZxqVCBdk0h3d-LkIfufm-43" value="" style="endArrow=none;html=1;rounded=0;entryX=0;entryY=0.5;entryDx=0;entryDy=0;" edge="1" parent="1" target="ZxqVCBdk0h3d-LkIfufm-42">
          <mxGeometry width="50" height="50" relative="1" as="geometry">
            <mxPoint x="-350" y="915" as="sourcePoint" />
            <mxPoint x="-340" y="910" as="targetPoint" />
          </mxGeometry>
        </mxCell>
        <mxCell id="ZxqVCBdk0h3d-LkIfufm-44" value="" style="endArrow=none;html=1;rounded=0;" edge="1" parent="1">
          <mxGeometry width="50" height="50" relative="1" as="geometry">
            <mxPoint x="-350" y="960" as="sourcePoint" />
            <mxPoint x="-350" y="840" as="targetPoint" />
          </mxGeometry>
        </mxCell>
        <mxCell id="ZxqVCBdk0h3d-LkIfufm-45" value="" style="endArrow=none;html=1;rounded=0;" edge="1" parent="1">
          <mxGeometry width="50" height="50" relative="1" as="geometry">
            <mxPoint x="-370" y="960" as="sourcePoint" />
            <mxPoint x="-350" y="960" as="targetPoint" />
          </mxGeometry>
        </mxCell>
        <mxCell id="ZxqVCBdk0h3d-LkIfufm-46" value="" style="endArrow=none;html=1;rounded=0;" edge="1" parent="1">
          <mxGeometry width="50" height="50" relative="1" as="geometry">
            <mxPoint x="-370" y="840" as="sourcePoint" />
            <mxPoint x="-350" y="840" as="targetPoint" />
          </mxGeometry>
        </mxCell>
        <mxCell id="ZxqVCBdk0h3d-LkIfufm-47" value="Attribute&lt;br&gt;&lt;b&gt;src&lt;/b&gt;&lt;br&gt;&quot;&lt;span style=&quot;color: light-dark(rgb(0, 0, 0), rgb(255, 255, 255)); background-color: transparent;&quot;&gt;https://static.nike.com/a/images/t_PDP_1728_v1&lt;br&gt;/f_auto,q_auto:eco/9a477f39-480c-&lt;br&gt;41e8-9937-0e9e20312167&lt;br&gt;/FCB+M+NK+DF+JSY+SS+STAD+HM.png&quot;&lt;/span&gt;" style="ellipse;whiteSpace=wrap;html=1;" vertex="1" parent="1">
          <mxGeometry x="-710" y="770" width="350" height="130" as="geometry" />
        </mxCell>
        <mxCell id="ZxqVCBdk0h3d-LkIfufm-48" value="Attribute&lt;br&gt;&lt;b&gt;alt&lt;/b&gt;&lt;br&gt;&lt;span style=&quot;line-height: 115%;&quot;&gt;&lt;font style=&quot;font-size: 11px;&quot;&gt;&quot;Primer&lt;br&gt;equipament Stadium&lt;br&gt;FC Barcelona 2024/25&quot;&lt;/font&gt;&lt;/span&gt;" style="ellipse;whiteSpace=wrap;html=1;" vertex="1" parent="1">
          <mxGeometry x="-570" y="900" width="210" height="110" as="geometry" />
        </mxCell>
        <mxCell id="ZxqVCBdk0h3d-LkIfufm-49" value="" style="endArrow=none;html=1;rounded=0;" edge="1" parent="1">
          <mxGeometry width="50" height="50" relative="1" as="geometry">
            <mxPoint x="1000" y="540" as="sourcePoint" />
            <mxPoint x="1030" y="540" as="targetPoint" />
          </mxGeometry>
        </mxCell>
        <mxCell id="ZxqVCBdk0h3d-LkIfufm-50" value="" style="endArrow=none;html=1;rounded=0;" edge="1" parent="1">
          <mxGeometry width="50" height="50" relative="1" as="geometry">
            <mxPoint x="1030" y="920" as="sourcePoint" />
            <mxPoint x="1030" y="200" as="targetPoint" />
          </mxGeometry>
        </mxCell>
        <mxCell id="ZxqVCBdk0h3d-LkIfufm-51" value="" style="endArrow=none;html=1;rounded=0;" edge="1" parent="1">
          <mxGeometry width="50" height="50" relative="1" as="geometry">
            <mxPoint x="1030" y="920" as="sourcePoint" />
            <mxPoint x="1070" y="920" as="targetPoint" />
          </mxGeometry>
        </mxCell>
        <mxCell id="ZxqVCBdk0h3d-LkIfufm-52" value="Element&lt;br&gt;&lt;b&gt;&amp;lt;img/&amp;gt;&lt;/b&gt;" style="rounded=0;whiteSpace=wrap;html=1;" vertex="1" parent="1">
          <mxGeometry x="1070" y="890" width="120" height="50" as="geometry" />
        </mxCell>
        <mxCell id="ZxqVCBdk0h3d-LkIfufm-54" value="" style="endArrow=none;html=1;rounded=0;" edge="1" parent="1">
          <mxGeometry width="50" height="50" relative="1" as="geometry">
            <mxPoint x="1070" y="200" as="sourcePoint" />
            <mxPoint x="1030" y="200" as="targetPoint" />
          </mxGeometry>
        </mxCell>
        <mxCell id="ZxqVCBdk0h3d-LkIfufm-55" value="Attribute&lt;br&gt;&lt;b&gt;&amp;lt;descripcio&amp;gt;&lt;br&gt;&lt;/b&gt;&lt;span style=&quot;background-color: transparent; color: light-dark(rgb(0, 0, 0), rgb(255, 255, 255));&quot;&gt;Volar alt pot donar fred. Afortunadament, tenim aquesta&lt;br/&gt;espaiosa jaqueta&lt;br&gt;&lt;/span&gt;&lt;span style=&quot;background-color: transparent; color: light-dark(rgb(0, 0, 0), rgb(255, 255, 255));&quot;&gt;encoixinada per abrigar-te. El durador teixit antiesquinçament&lt;br&gt;repel·lent&lt;br&gt;&lt;/span&gt;&lt;span style=&quot;background-color: transparent; color: light-dark(rgb(0, 0, 0), rgb(255, 255, 255));&quot;&gt;a l&#39;aigua, l&#39;aillament de plomissol i la nostra tecnologia Therma&lt;br&gt;FIT us&lt;br&gt;&lt;/span&gt;&lt;span style=&quot;background-color: transparent; color: light-dark(rgb(0, 0, 0), rgb(255, 255, 255));&quot;&gt;ofereixen calidesa i us protegeixen del mal temps.&lt;/span&gt;" style="whiteSpace=wrap;html=1;aspect=fixed;" vertex="1" parent="1">
          <mxGeometry x="1070" y="92.5" width="200" height="200" as="geometry" />
        </mxCell>
        <mxCell id="ZxqVCBdk0h3d-LkIfufm-56" value="" style="endArrow=none;html=1;rounded=0;exitX=0.995;exitY=0.555;exitDx=0;exitDy=0;exitPerimeter=0;" edge="1" parent="1" source="ZxqVCBdk0h3d-LkIfufm-55">
          <mxGeometry width="50" height="50" relative="1" as="geometry">
            <mxPoint x="1310" y="200" as="sourcePoint" />
            <mxPoint x="1290" y="204" as="targetPoint" />
          </mxGeometry>
        </mxCell>
        <mxCell id="ZxqVCBdk0h3d-LkIfufm-58" value="" style="endArrow=none;html=1;rounded=0;" edge="1" parent="1">
          <mxGeometry width="50" height="50" relative="1" as="geometry">
            <mxPoint x="1030" y="350" as="sourcePoint" />
            <mxPoint x="1070" y="350" as="targetPoint" />
          </mxGeometry>
        </mxCell>
        <mxCell id="ZxqVCBdk0h3d-LkIfufm-59" value="Element&lt;br&gt;&lt;b&gt;&amp;lt;categoria&amp;gt;&lt;/b&gt;&lt;div&gt;Jaquetes&lt;/div&gt;" style="rounded=0;whiteSpace=wrap;html=1;" vertex="1" parent="1">
          <mxGeometry x="1070" y="320" width="120" height="60" as="geometry" />
        </mxCell>
        <mxCell id="ZxqVCBdk0h3d-LkIfufm-60" value="" style="endArrow=none;html=1;rounded=0;" edge="1" parent="1">
          <mxGeometry width="50" height="50" relative="1" as="geometry">
            <mxPoint x="1030" y="440" as="sourcePoint" />
            <mxPoint x="1070" y="440" as="targetPoint" />
          </mxGeometry>
        </mxCell>
        <mxCell id="ZxqVCBdk0h3d-LkIfufm-62" value="Element&lt;br&gt;&lt;b&gt;&amp;lt;nom&amp;gt;&lt;br&gt;&lt;/b&gt;&lt;span style=&quot;background-color: transparent; color: light-dark(rgb(0, 0, 0), rgb(255, 255, 255));&quot;&gt;Jordan Flight&lt;/span&gt;" style="rounded=0;whiteSpace=wrap;html=1;" vertex="1" parent="1">
          <mxGeometry x="1070" y="400" width="120" height="60" as="geometry" />
        </mxCell>
        <mxCell id="ZxqVCBdk0h3d-LkIfufm-63" value="" style="endArrow=none;html=1;rounded=0;" edge="1" parent="1">
          <mxGeometry width="50" height="50" relative="1" as="geometry">
            <mxPoint x="1030" y="530" as="sourcePoint" />
            <mxPoint x="1060" y="530" as="targetPoint" />
          </mxGeometry>
        </mxCell>
        <mxCell id="ZxqVCBdk0h3d-LkIfufm-64" value="Element&lt;br&gt;&lt;b&gt;&amp;lt;preu&amp;gt;&lt;br&gt;&lt;/b&gt;249,99" style="rounded=0;whiteSpace=wrap;html=1;" vertex="1" parent="1">
          <mxGeometry x="1060" y="500" width="120" height="60" as="geometry" />
        </mxCell>
        <mxCell id="ZxqVCBdk0h3d-LkIfufm-65" value="" style="endArrow=none;html=1;rounded=0;" edge="1" parent="1">
          <mxGeometry width="50" height="50" relative="1" as="geometry">
            <mxPoint x="1180" y="530" as="sourcePoint" />
            <mxPoint x="1200" y="530" as="targetPoint" />
          </mxGeometry>
        </mxCell>
        <mxCell id="ZxqVCBdk0h3d-LkIfufm-66" value="Attribute&lt;br&gt;&lt;b&gt;moneda&lt;/b&gt;&lt;br&gt;&quot;€&quot;&lt;br&gt;&lt;div&gt;&lt;br&gt;&lt;/div&gt;" style="ellipse;whiteSpace=wrap;html=1;" vertex="1" parent="1">
          <mxGeometry x="1200" y="500" width="120" height="60" as="geometry" />
        </mxCell>
        <mxCell id="ZxqVCBdk0h3d-LkIfufm-67" value="" style="endArrow=none;html=1;rounded=0;" edge="1" parent="1">
          <mxGeometry width="50" height="50" relative="1" as="geometry">
            <mxPoint x="1030" y="640" as="sourcePoint" />
            <mxPoint x="1080" y="640" as="targetPoint" />
          </mxGeometry>
        </mxCell>
        <mxCell id="ZxqVCBdk0h3d-LkIfufm-68" value="Element&lt;br&gt;&lt;b&gt;&amp;lt;disponibilitat&amp;gt;&lt;/b&gt;&lt;br&gt;En estoc" style="rounded=0;whiteSpace=wrap;html=1;" vertex="1" parent="1">
          <mxGeometry x="1060" y="610" width="120" height="60" as="geometry" />
        </mxCell>
        <mxCell id="ZxqVCBdk0h3d-LkIfufm-69" value="" style="endArrow=none;html=1;rounded=0;" edge="1" parent="1">
          <mxGeometry width="50" height="50" relative="1" as="geometry">
            <mxPoint x="1190" y="920" as="sourcePoint" />
            <mxPoint x="1210" y="920" as="targetPoint" />
          </mxGeometry>
        </mxCell>
        <mxCell id="ZxqVCBdk0h3d-LkIfufm-70" value="" style="endArrow=none;html=1;rounded=0;" edge="1" parent="1">
          <mxGeometry width="50" height="50" relative="1" as="geometry">
            <mxPoint x="1210" y="940" as="sourcePoint" />
            <mxPoint x="1210" y="760" as="targetPoint" />
          </mxGeometry>
        </mxCell>
        <mxCell id="ZxqVCBdk0h3d-LkIfufm-71" value="" style="endArrow=none;html=1;rounded=0;" edge="1" parent="1">
          <mxGeometry width="50" height="50" relative="1" as="geometry">
            <mxPoint x="1210" y="760" as="sourcePoint" />
            <mxPoint x="1220" y="760" as="targetPoint" />
          </mxGeometry>
        </mxCell>
        <mxCell id="ZxqVCBdk0h3d-LkIfufm-72" value="" style="endArrow=none;html=1;rounded=0;" edge="1" parent="1">
          <mxGeometry width="50" height="50" relative="1" as="geometry">
            <mxPoint x="1210" y="940" as="sourcePoint" />
            <mxPoint x="1220" y="940" as="targetPoint" />
          </mxGeometry>
        </mxCell>
        <mxCell id="ZxqVCBdk0h3d-LkIfufm-73" value="Attribute&lt;br&gt;&lt;b&gt;src&lt;/b&gt;&lt;br&gt;&quot;&lt;span style=&quot;background-color: transparent; color: light-dark(rgb(0, 0, 0), rgb(255, 255, 255));&quot;&gt;https://static.nike.com/a/images/t_PDP_1728_v1/&lt;br&gt;f_auto,q_auto:eco,u_126ab356-44d8-4a06-89b4-&lt;br&gt;fcdcc8df0245,c_scale,fl_relative,&lt;br&gt;w_1.0,h_1.0,fl_&lt;br&gt;layer_apply/34338e02-7fbf-492b-b4db&lt;br&gt;-0d4ca665efd1/M+J+FLIGHT+DOWN+PUFFER.png&lt;/span&gt;&lt;span style=&quot;background-color: transparent; color: light-dark(rgb(0, 0, 0), rgb(255, 255, 255));&quot;&gt;&quot;&lt;/span&gt;" style="ellipse;whiteSpace=wrap;html=1;" vertex="1" parent="1">
          <mxGeometry x="1220" y="680" width="410" height="160" as="geometry" />
        </mxCell>
        <mxCell id="ZxqVCBdk0h3d-LkIfufm-74" value="Attribute&lt;br&gt;&lt;b&gt;alt&lt;/b&gt;&lt;br&gt;Jordan Flight" style="ellipse;whiteSpace=wrap;html=1;" vertex="1" parent="1">
          <mxGeometry x="1220" y="910" width="120" height="60" as="geometry" />
        </mxCell>
        <mxCell id="ZxqVCBdk0h3d-LkIfufm-75" value="" style="endArrow=none;html=1;rounded=0;exitX=0.5;exitY=0;exitDx=0;exitDy=0;" edge="1" parent="1" source="ZxqVCBdk0h3d-LkIfufm-13">
          <mxGeometry width="50" height="50" relative="1" as="geometry">
            <mxPoint x="410" y="180" as="sourcePoint" />
            <mxPoint x="420" y="150" as="targetPoint" />
          </mxGeometry>
        </mxCell>
        <mxCell id="ZxqVCBdk0h3d-LkIfufm-76" value="" style="endArrow=none;html=1;rounded=0;" edge="1" parent="1">
          <mxGeometry width="50" height="50" relative="1" as="geometry">
            <mxPoint x="40" y="150" as="sourcePoint" />
            <mxPoint x="800" y="150" as="targetPoint" />
          </mxGeometry>
        </mxCell>
        <mxCell id="ZxqVCBdk0h3d-LkIfufm-77" value="" style="endArrow=none;html=1;rounded=0;" edge="1" parent="1">
          <mxGeometry width="50" height="50" relative="1" as="geometry">
            <mxPoint x="40" y="150" as="sourcePoint" />
            <mxPoint x="40" y="130" as="targetPoint" />
          </mxGeometry>
        </mxCell>
        <mxCell id="ZxqVCBdk0h3d-LkIfufm-78" value="" style="endArrow=none;html=1;rounded=0;" edge="1" parent="1">
          <mxGeometry width="50" height="50" relative="1" as="geometry">
            <mxPoint x="800" y="150" as="sourcePoint" />
            <mxPoint x="800" y="130" as="targetPoint" />
          </mxGeometry>
        </mxCell>
        <mxCell id="ZxqVCBdk0h3d-LkIfufm-79" value="Element&lt;br&gt;&lt;b&gt;&amp;lt;descripcio&amp;gt;&lt;/b&gt;&lt;br&gt;&lt;span style=&quot;background-color: transparent; color: light-dark(rgb(0, 0, 0), rgb(255, 255, 255));&quot;&gt;A tots els aficionats als Bulls! Mostra la passió que sents&lt;br/&gt;pel teu equip&lt;br&gt;&lt;/span&gt;&lt;span style=&quot;background-color: transparent; color: light-dark(rgb(0, 0, 0), rgb(255, 255, 255));&quot;&gt;amb aquesta dessuadora amb caputxa Chicago Bulls. Confeccionada amb un suau teixit&lt;br/&gt;Fleece, manté la calidesa mentre animes el teu equip durant tota la&lt;br&gt;&lt;/span&gt;&lt;span style=&quot;background-color: transparent; color: light-dark(rgb(0, 0, 0), rgb(255, 255, 255));&quot;&gt;temporada.&lt;/span&gt;" style="whiteSpace=wrap;html=1;aspect=fixed;" vertex="1" parent="1">
          <mxGeometry x="-57.5" y="-60" width="197.5" height="197.5" as="geometry" />
        </mxCell>
        <mxCell id="ZxqVCBdk0h3d-LkIfufm-80" value="" style="endArrow=none;html=1;rounded=0;" edge="1" parent="1">
          <mxGeometry width="50" height="50" relative="1" as="geometry">
            <mxPoint x="40" y="-60" as="sourcePoint" />
            <mxPoint x="40" y="-80" as="targetPoint" />
          </mxGeometry>
        </mxCell>
        <mxCell id="ZxqVCBdk0h3d-LkIfufm-82" value="" style="endArrow=none;html=1;rounded=0;" edge="1" parent="1">
          <mxGeometry width="50" height="50" relative="1" as="geometry">
            <mxPoint x="200" y="150" as="sourcePoint" />
            <mxPoint x="200" y="110" as="targetPoint" />
          </mxGeometry>
        </mxCell>
        <mxCell id="ZxqVCBdk0h3d-LkIfufm-83" value="Element&lt;br&gt;&lt;b&gt;&amp;lt;categoria&amp;gt;&lt;/b&gt;&lt;br&gt;Dessuadores" style="rounded=0;whiteSpace=wrap;html=1;" vertex="1" parent="1">
          <mxGeometry x="150" y="81.25" width="120" height="50" as="geometry" />
        </mxCell>
        <mxCell id="ZxqVCBdk0h3d-LkIfufm-84" value="" style="endArrow=none;html=1;rounded=0;" edge="1" parent="1">
          <mxGeometry width="50" height="50" relative="1" as="geometry">
            <mxPoint x="340" y="150" as="sourcePoint" />
            <mxPoint x="340" y="110" as="targetPoint" />
          </mxGeometry>
        </mxCell>
        <mxCell id="ZxqVCBdk0h3d-LkIfufm-85" value="Element&lt;br&gt;&lt;b&gt;&amp;lt;nom&amp;gt;&lt;/b&gt;&lt;br&gt;Xicago Bulls Club" style="rounded=0;whiteSpace=wrap;html=1;" vertex="1" parent="1">
          <mxGeometry x="280" y="80" width="120" height="51.25" as="geometry" />
        </mxCell>
        <mxCell id="ZxqVCBdk0h3d-LkIfufm-86" value="" style="endArrow=none;html=1;rounded=0;" edge="1" parent="1">
          <mxGeometry width="50" height="50" relative="1" as="geometry">
            <mxPoint x="480" y="150" as="sourcePoint" />
            <mxPoint x="480" y="120" as="targetPoint" />
          </mxGeometry>
        </mxCell>
        <mxCell id="ZxqVCBdk0h3d-LkIfufm-87" value="Element&lt;br&gt;&lt;b&gt;&amp;lt;preu&amp;gt;&lt;/b&gt;&lt;br&gt;69,99" style="rounded=0;whiteSpace=wrap;html=1;" vertex="1" parent="1">
          <mxGeometry x="410" y="80" width="120" height="51" as="geometry" />
        </mxCell>
        <mxCell id="ZxqVCBdk0h3d-LkIfufm-88" value="Attribute&lt;br&gt;&lt;b&gt;moneda&lt;/b&gt;&lt;br&gt;&quot;€&quot;" style="ellipse;whiteSpace=wrap;html=1;" vertex="1" parent="1">
          <mxGeometry x="410" y="-10" width="120" height="60" as="geometry" />
        </mxCell>
        <mxCell id="ZxqVCBdk0h3d-LkIfufm-89" value="" style="endArrow=none;html=1;rounded=0;" edge="1" parent="1">
          <mxGeometry width="50" height="50" relative="1" as="geometry">
            <mxPoint x="470" y="80" as="sourcePoint" />
            <mxPoint x="470" y="50" as="targetPoint" />
          </mxGeometry>
        </mxCell>
        <mxCell id="ZxqVCBdk0h3d-LkIfufm-90" value="Element&lt;br&gt;&lt;b&gt;&amp;lt;disponibilitat&amp;gt;&lt;/b&gt;&lt;br&gt;En estoc" style="rounded=0;whiteSpace=wrap;html=1;" vertex="1" parent="1">
          <mxGeometry x="540" y="80" width="120" height="50" as="geometry" />
        </mxCell>
        <mxCell id="ZxqVCBdk0h3d-LkIfufm-91" value="" style="endArrow=none;html=1;rounded=0;" edge="1" parent="1">
          <mxGeometry width="50" height="50" relative="1" as="geometry">
            <mxPoint x="590" y="150" as="sourcePoint" />
            <mxPoint x="590" y="130" as="targetPoint" />
          </mxGeometry>
        </mxCell>
        <mxCell id="ZxqVCBdk0h3d-LkIfufm-92" value="Element&lt;br&gt;&lt;b&gt;&amp;lt;/img&amp;gt;&lt;/b&gt;" style="rounded=0;whiteSpace=wrap;html=1;" vertex="1" parent="1">
          <mxGeometry x="690" y="80" width="120" height="50" as="geometry" />
        </mxCell>
        <mxCell id="ZxqVCBdk0h3d-LkIfufm-93" value="" style="endArrow=none;html=1;rounded=0;" edge="1" parent="1">
          <mxGeometry width="50" height="50" relative="1" as="geometry">
            <mxPoint x="750" y="80" as="sourcePoint" />
            <mxPoint x="750" y="60" as="targetPoint" />
          </mxGeometry>
        </mxCell>
        <mxCell id="ZxqVCBdk0h3d-LkIfufm-94" value="" style="endArrow=none;html=1;rounded=0;" edge="1" parent="1">
          <mxGeometry width="50" height="50" relative="1" as="geometry">
            <mxPoint x="680" y="60" as="sourcePoint" />
            <mxPoint x="830" y="60" as="targetPoint" />
          </mxGeometry>
        </mxCell>
        <mxCell id="ZxqVCBdk0h3d-LkIfufm-95" value="" style="endArrow=none;html=1;rounded=0;" edge="1" parent="1">
          <mxGeometry width="50" height="50" relative="1" as="geometry">
            <mxPoint x="830" y="60" as="sourcePoint" />
            <mxPoint x="830" y="40" as="targetPoint" />
          </mxGeometry>
        </mxCell>
        <mxCell id="ZxqVCBdk0h3d-LkIfufm-96" value="Attribute&lt;br&gt;&lt;b&gt;src&lt;/b&gt;&lt;br&gt;&lt;span style=&quot;background-color: transparent; color: light-dark(rgb(0, 0, 0), rgb(255, 255, 255));&quot;&gt;&quot;https://static.nike.com/a/images/t_PDP_1728_v1/&lt;br&gt;f_auto,q_auto:eco/3bab9c71-0b19-4590-9db6-381&lt;br&gt;a126e9040/CHI+MNK+CLUB+HDY+PO.png&quot;&lt;/span&gt;" style="ellipse;whiteSpace=wrap;html=1;" vertex="1" parent="1">
          <mxGeometry x="750" y="-60" width="350" height="110" as="geometry" />
        </mxCell>
        <mxCell id="ZxqVCBdk0h3d-LkIfufm-97" value="" style="endArrow=none;html=1;rounded=0;" edge="1" parent="1">
          <mxGeometry width="50" height="50" relative="1" as="geometry">
            <mxPoint x="680" y="60" as="sourcePoint" />
            <mxPoint x="680" y="40" as="targetPoint" />
          </mxGeometry>
        </mxCell>
        <mxCell id="ZxqVCBdk0h3d-LkIfufm-98" value="Attribute&lt;br&gt;&lt;b&gt;alt&lt;/b&gt;&lt;br&gt;&quot;Xicago Bulls Club&quot;" style="ellipse;whiteSpace=wrap;html=1;" vertex="1" parent="1">
          <mxGeometry x="580" y="-20" width="160" height="60" as="geometry" />
        </mxCell>
      </root>
    </mxGraphModel>
  </diagram>
</mxfile>
